<?xml version="1.0" encoding="UTF-8" standalone="no"?>
<svg
   xmlns:dc="http://purl.org/dc/elements/1.1/"
   xmlns:cc="http://creativecommons.org/ns#"
   xmlns:rdf="http://www.w3.org/1999/02/22-rdf-syntax-ns#"
   xmlns:svg="http://www.w3.org/2000/svg"
   xmlns="http://www.w3.org/2000/svg"
   xmlns:sodipodi="http://sodipodi.sourceforge.net/DTD/sodipodi-0.dtd"
   xmlns:inkscape="http://www.inkscape.org/namespaces/inkscape"
   inkscape:version="1.0beta2 (2b71d25, 2019-12-03)"
   height="16"
   width="16"
   sodipodi:docname="button-finger.svg"
   id="svg14"
   version="1.1"
   viewBox="0 0 16 16">
  <defs
     id="defs18" />
  <sodipodi:namedview
     inkscape:current-layer="svg14"
     inkscape:window-maximized="1"
     inkscape:window-y="23"
     inkscape:window-x="0"
     inkscape:cy="7.8648363"
     inkscape:cx="8.8363252"
     inkscape:zoom="59.1875"
     showgrid="false"
     id="namedview16"
     inkscape:window-height="1155"
     inkscape:window-width="1920"
     inkscape:pageshadow="2"
     inkscape:pageopacity="0"
     guidetolerance="10"
     gridtolerance="10"
     objecttolerance="10"
     borderopacity="1"
     inkscape:document-rotation="0"
     bordercolor="#666666"
     pagecolor="#ffffff" />
  <g
     style="fill:#8eef97;fill-opacity:1"
     transform="matrix(0.03361345,0,0,0.03361345,-0.6050432,-0.48739613)"
     id="g12"
     class="">
    <path
       style="fill:#8eef97;fill-opacity:1"
       inkscape:connector-curvature="0"
       id="path10"
       fill-opacity="1"
       fill="#a3f0aa"
       d="m 169,18 v 206 c 0,25.43 10.438,43.384 26.525,55.896 C 211.613,292.41 233.75,299 256,299 c 22.25,0 44.387,-6.59 60.475,-19.104 C 332.562,267.384 343,249.43 343,224 V 18 Z M 80,32 28.027,93.102 144.613,218.117 Z M 432,32 367.387,218.117 483.973,93.102 Z M 192,39 H 320 V 57 H 192 Z m 16,32 h 96 v 18 h -96 z m 48,68.178 c 21.138,0 42.276,4.093 66.846,12.283 L 329,153.515 V 224 c 0,16 -11.186,28.156 -24.975,35.05 -13.788,6.895 -30.9,9.95 -48.025,9.95 -17.125,0 -34.237,-3.055 -48.025,-9.95 C 194.185,252.157 183,240 183,224 v -70.486 l 6.154,-2.053 c 24.57,-8.19 45.708,-12.282 66.846,-12.282 z m 0,17.644 c -17.133,0 -34.442,3.394 -55,9.838 V 224 c 0,8 4.814,13.844 15.025,18.95 10.212,5.105 25.1,8.05 39.975,8.05 14.875,0 29.763,-2.945 39.975,-8.05 C 306.185,237.843 311,232 311,224 v -57.34 c -20.558,-6.444 -37.867,-9.838 -55,-9.838 z m -237.104,24.07 2.81,36.522 99.028,14.75 -101.838,-51.27 z m 474.208,0 -101.838,51.272 99.03,-14.75 2.808,-36.52 z m -340.317,61.762 a 168.22,168.22 0 0 0 -10.807,4.983 C 113.406,262.11 98,280.863 98,299.417 c 0,18.556 15.406,37.308 43.98,51.78 C 170.555,365.67 211.116,375 256,375 c 44.884,0 85.445,-9.33 114.02,-23.803 28.574,-14.472 43.98,-33.224 43.98,-51.78 0,-18.554 -15.406,-37.308 -43.98,-51.78 a 168.22,168.22 0 0 0 -10.807,-4.983 c -4.294,21.785 -16.024,39.266 -31.688,51.45 C 307.613,309.59 281.75,317 256,317 c -25.75,0 -51.613,-7.41 -71.525,-22.896 -15.664,-12.184 -27.394,-29.665 -31.688,-51.45 z m 279.176,67.657 v 53.108 c 0,18.27 -9.684,35.238 -25.434,49.057 -15.75,13.818 -37.74,24.997 -64.526,32.832 -53.573,15.668 -118.452,15.668 -172.025,0 C 143.19,437.473 121.201,426.294 105.451,412.476 89.865,398.8 80.224,382.038 80.025,363.986 h -0.18 v -53.58 C 40.076,330.146 18,355.583 18,381.006 18,407.536 42.032,434.09 85.143,454.161 128.253,474.23 188.925,487 256,487 323.075,487 383.747,474.23 426.857,454.16 469.967,434.09 494,407.535 494,381.004 c 0,-25.463 -22.147,-50.94 -62.037,-70.693 z m -334.117,30.8 v 22.308 h 0.172 c 0,11.95 6.228,24.05 19.306,35.525 13.078,11.475 32.832,21.81 57.707,29.086 49.75,14.55 112.17,14.55 161.92,0 24.876,-7.276 44.63,-17.612 57.708,-29.087 13.078,-11.475 19.305,-23.575 19.305,-35.525 V 341.32 c -9.224,9.965 -21.516,18.697 -35.81,25.936 C 346.288,383.396 303.35,393 256,393 c -47.35,0 -90.287,-9.604 -122.154,-25.744 -14.393,-7.29 -26.756,-16.093 -36,-26.145 z" />
  </g>
  <metadata
     id="metadata17">
    <rdf:RDF>
      <cc:Work
         rdf:about="">
        <dc:title></dc:title>
      </cc:Work>
    </rdf:RDF>
  </metadata>
</svg>
