<svg height="16" viewBox="0 0 16 16" width="16" xmlns="http://www.w3.org/2000/svg"><path d="m169 18v206c0 25.43 10.438 43.384 26.525 55.896 16.088 12.514 38.225 19.104 60.475 19.104s44.387-6.59 60.475-19.104c16.087-12.512 26.525-30.466 26.525-55.896v-206zm-89 14-51.973 61.102 116.586 125.015zm352 0-64.613 186.117 116.586-125.015zm-240 7h128v18h-128zm16 32h96v18h-96zm48 68.178c21.138 0 42.276 4.093 66.846 12.283l6.154 2.054v70.485c0 16-11.186 28.156-24.975 35.05-13.788 6.895-30.9 9.95-48.025 9.95s-34.237-3.055-48.025-9.95c-13.79-6.893-24.975-19.05-24.975-35.05v-70.486l6.154-2.053c24.57-8.19 45.708-12.282 66.846-12.282zm0 17.644c-17.133 0-34.442 3.394-55 9.838v57.34c0 8 4.814 13.844 15.025 18.95 10.212 5.105 25.1 8.05 39.975 8.05s29.763-2.945 39.975-8.05c10.21-5.107 15.025-10.95 15.025-18.95v-57.34c-20.558-6.444-37.867-9.838-55-9.838zm-237.104 24.07 2.81 36.522 99.028 14.75-101.838-51.27zm474.208 0-101.838 51.272 99.03-14.75 2.808-36.52zm-340.317 61.762a168.22 168.22 0 0 0 -10.807 4.983c-28.574 14.473-43.98 33.226-43.98 51.78 0 18.556 15.406 37.308 43.98 51.78 28.575 14.473 69.136 23.803 114.02 23.803s85.445-9.33 114.02-23.803c28.574-14.472 43.98-33.224 43.98-51.78 0-18.554-15.406-37.308-43.98-51.78a168.22 168.22 0 0 0 -10.807-4.983c-4.294 21.785-16.024 39.266-31.688 51.45-19.912 15.486-45.775 22.896-71.525 22.896s-51.613-7.41-71.525-22.896c-15.664-12.184-27.394-29.665-31.688-51.45zm279.176 67.657v53.108c0 18.27-9.684 35.238-25.434 49.057-15.75 13.818-37.74 24.997-64.526 32.832-53.573 15.668-118.452 15.668-172.025 0-26.788-7.835-48.777-19.014-64.527-32.832-15.586-13.676-25.227-30.438-25.426-48.49h-.18v-53.58c-39.769 19.74-61.845 45.177-61.845 70.6 0 26.53 24.032 53.084 67.143 73.155 43.11 20.069 103.782 32.839 170.857 32.839s127.747-12.77 170.857-32.84 67.143-46.625 67.143-73.156c0-25.463-22.147-50.94-62.037-70.693zm-334.117 30.8v22.308h.172c0 11.95 6.228 24.05 19.306 35.525s32.832 21.81 57.707 29.086c49.75 14.55 112.17 14.55 161.92 0 24.876-7.276 44.63-17.612 57.708-29.087s19.305-23.575 19.305-35.525v-22.098c-9.224 9.965-21.516 18.697-35.81 25.936-31.866 16.14-74.804 25.744-122.154 25.744s-90.287-9.604-122.154-25.744c-14.393-7.29-26.756-16.093-36-26.145z" fill="#8eef97" transform="matrix(.03361345 0 0 .03361345 -.605043 -.487396)"/></svg>